<?xml version="1.0" encoding="utf-8"?>
<svg version="1.1" xmlns:xlink="http://www.w3.org/1999/xlink" width="9px" height="5px" xmlns="http://www.w3.org/2000/svg">
  <defs>
    <mask fill="white" id="clip7">
      <path d="M 8.8330078125 0.164930555555556  C 8.9443359375 0.274884259259259  9 0.405092592592591  9 0.555555555555556  C 9 0.706018518518518  8.9443359375 0.836226851851851  8.8330078125 0.946180555555556  L 4.8955078125 4.83506944444444  C 4.7841796875 4.94502314814815  4.65234375 5  4.5 5  C 4.34765625 5  4.2158203125 4.94502314814815  4.1044921875 4.83506944444444  L 0.1669921875 0.946180555555556  C 0.0556640625 0.836226851851851  0 0.706018518518518  0 0.555555555555556  C 0 0.405092592592591  0.0556640625 0.274884259259259  0.1669921875 0.164930555555556  C 0.2783203125 0.0549768518518512  0.41015625 0  0.5625 0  L 8.4375 0  C 8.58984375 0  8.7216796875 0.0549768518518512  8.8330078125 0.164930555555556  Z " fill-rule="evenodd" />
    </mask>
  </defs>
  <g transform="matrix(1 0 0 1 -532 -154 )">
    <path d="M 8.8330078125 0.164930555555556  C 8.9443359375 0.274884259259259  9 0.405092592592591  9 0.555555555555556  C 9 0.706018518518518  8.9443359375 0.836226851851851  8.8330078125 0.946180555555556  L 4.8955078125 4.83506944444444  C 4.7841796875 4.94502314814815  4.65234375 5  4.5 5  C 4.34765625 5  4.2158203125 4.94502314814815  4.1044921875 4.83506944444444  L 0.1669921875 0.946180555555556  C 0.0556640625 0.836226851851851  0 0.706018518518518  0 0.555555555555556  C 0 0.405092592592591  0.0556640625 0.274884259259259  0.1669921875 0.164930555555556  C 0.2783203125 0.0549768518518512  0.41015625 0  0.5625 0  L 8.4375 0  C 8.58984375 0  8.7216796875 0.0549768518518512  8.8330078125 0.164930555555556  Z " fill-rule="nonzero" fill="#d7d7d7" stroke="none" transform="matrix(1 0 0 1 532 154 )" />
    <path d="M 8.8330078125 0.164930555555556  C 8.9443359375 0.274884259259259  9 0.405092592592591  9 0.555555555555556  C 9 0.706018518518518  8.9443359375 0.836226851851851  8.8330078125 0.946180555555556  L 4.8955078125 4.83506944444444  C 4.7841796875 4.94502314814815  4.65234375 5  4.5 5  C 4.34765625 5  4.2158203125 4.94502314814815  4.1044921875 4.83506944444444  L 0.1669921875 0.946180555555556  C 0.0556640625 0.836226851851851  0 0.706018518518518  0 0.555555555555556  C 0 0.405092592592591  0.0556640625 0.274884259259259  0.1669921875 0.164930555555556  C 0.2783203125 0.0549768518518512  0.41015625 0  0.5625 0  L 8.4375 0  C 8.58984375 0  8.7216796875 0.0549768518518512  8.8330078125 0.164930555555556  Z " stroke-width="2" stroke="#d7d7d7" fill="none" transform="matrix(1 0 0 1 532 154 )" mask="url(#clip7)" />
  </g>
</svg>