<?xml version="1.0" encoding="utf-8"?>
<svg version="1.1" xmlns:xlink="http://www.w3.org/1999/xlink" width="9px" height="13px" xmlns="http://www.w3.org/2000/svg">
  <g transform="matrix(1 0 0 1 -582 -90 )">
    <path d="M 8.84536082474227 0.781563126252504  C 8.94845360824742 0.868403473613893  9 0.968269873079491  9 1.0811623246493  C 9 1.1940547762191  8.94845360824742 1.2939211756847  8.84536082474227 1.38076152304609  L 2.7680412371134 6.5  L 8.84536082474227 11.6192384769539  C 8.94845360824742 11.7060788243153  9 11.8059452237809  9 11.9188376753507  C 9 12.0317301269205  8.94845360824742 12.1315965263861  8.84536082474227 12.2184368737475  L 8.07216494845361 12.8697394789579  C 7.96907216494845 12.9565798263193  7.85051546391753 13  7.71649484536082 13  C 7.58247422680413 13  7.4639175257732 12.9565798263193  7.36082474226804 12.8697394789579  L 0.154639175257732 6.79959919839679  C 0.0515463917525774 6.7127588510354  0 6.61289245156981  0 6.5  C 0 6.38710754843019  0.0515463917525774 6.2872411489646  0.154639175257732 6.20040080160321  L 7.36082474226804 0.130260521042084  C 7.4639175257732 0.0434201736806943  7.58247422680413 0  7.71649484536082 0  C 7.85051546391753 0  7.96907216494845 0.0434201736806943  8.07216494845361 0.130260521042084  L 8.84536082474227 0.781563126252504  Z " fill-rule="nonzero" fill="#015478" stroke="none" transform="matrix(1 0 0 1 582 90 )" />
  </g>
</svg>