<?xml version="1.0" encoding="utf-8"?>
<svg version="1.1" xmlns:xlink="http://www.w3.org/1999/xlink" width="119px" height="21px" xmlns="http://www.w3.org/2000/svg">
  <g transform="matrix(1 0 0 1 -90 -199 )">
    <path d="M 92 204  A 3 3 0 0 1 95 201 L 204 201  A 3 3 0 0 1 207 204 L 207 215  A 3 3 0 0 1 204 218 L 95 218  A 3 3 0 0 1 92 215 L 92 204  Z " fill-rule="nonzero" fill="#ffffff" stroke="none" fill-opacity="0" />
    <path d="M 91 204  A 4 4 0 0 1 95 200 L 204 200  A 4 4 0 0 1 208 204 L 208 215  A 4 4 0 0 1 204 219 L 95 219  A 4 4 0 0 1 91 215 L 91 204  Z " stroke-width="2" stroke-dasharray="6,2" stroke="#d9001b" fill="none" />
  </g>
</svg>