<?xml version="1.0" encoding="utf-8"?>
<svg version="1.1" xmlns:xlink="http://www.w3.org/1999/xlink" width="9px" height="13px" xmlns="http://www.w3.org/2000/svg">
  <g transform="matrix(1 0 0 1 -1215 -90 )">
    <path d="M 8.84536082474227 6.20040080160321  C 8.94845360824742 6.2872411489646  9 6.38710754843019  9 6.5  C 9 6.61289245156981  8.94845360824742 6.7127588510354  8.84536082474227 6.79959919839679  L 1.63917525773196 12.8697394789579  C 1.5360824742268 12.9565798263193  1.41752577319588 13  1.28350515463918 13  C 1.14948453608247 13  1.03092783505155 12.9565798263193  0.927835051546392 12.8697394789579  L 0.154639175257732 12.2184368737475  C 0.0515463917525774 12.1315965263861  0 12.0317301269205  0 11.9188376753507  C 0 11.8059452237809  0.0515463917525774 11.7060788243153  0.154639175257732 11.6192384769539  L 6.2319587628866 6.5  L 0.154639175257732 1.38076152304609  C 0.0515463917525774 1.2939211756847  0 1.1940547762191  0 1.0811623246493  C 0 0.968269873079491  0.0515463917525774 0.868403473613893  0.154639175257732 0.781563126252504  L 0.927835051546392 0.130260521042084  C 1.03092783505155 0.0434201736806943  1.14948453608247 0  1.28350515463918 0  C 1.41752577319588 0  1.5360824742268 0.0434201736806943  1.63917525773196 0.130260521042084  L 8.84536082474227 6.20040080160321  Z " fill-rule="nonzero" fill="#015478" stroke="none" transform="matrix(1 0 0 1 1215 90 )" />
  </g>
</svg>