<?xml version="1.0" encoding="utf-8"?>
<svg version="1.1" xmlns:xlink="http://www.w3.org/1999/xlink" width="13px" height="13px" viewBox="10 131  13 13" xmlns="http://www.w3.org/2000/svg">
  <path d="M 10.5 137.5  A 6 6 0 0 1 16.5 131.5 A 6 6 0 0 1 22.5 137.5 A 6 6 0 0 1 16.5 143.5 A 6 6 0 0 1 10.5 137.5 Z " fill-rule="nonzero" fill="#ffffff" stroke="none" />
  <path d="M 10.5 137.5  A 6 6 0 0 1 16.5 131.5 A 6 6 0 0 1 22.5 137.5 A 6 6 0 0 1 16.5 143.5 A 6 6 0 0 1 10.5 137.5 Z " stroke-width="1" stroke="#333333" fill="none" />
  <path d="M 12.7857142857143 137.5  L 15.5714285714286 140.285714285714  " stroke-width="2.78571428571429" stroke="#333333" fill="none" />
  <path d="M 15.5714285714286 140.285714285714  L 20.2142857142857 133.785714285714  " stroke-width="2.78571428571429" stroke="#333333" fill="none" />
</svg>