<?xml version="1.0" encoding="utf-8"?>
<svg version="1.1" xmlns:xlink="http://www.w3.org/1999/xlink" width="13px" height="13px" viewBox="10 33  13 13" xmlns="http://www.w3.org/2000/svg">
  <path d="M 10.5 39.5  A 6 6 0 0 1 16.5 33.5 A 6 6 0 0 1 22.5 39.5 A 6 6 0 0 1 16.5 45.5 A 6 6 0 0 1 10.5 39.5 Z " fill-rule="nonzero" fill="#ffffff" stroke="none" />
  <path d="M 10.5 39.5  A 6 6 0 0 1 16.5 33.5 A 6 6 0 0 1 22.5 39.5 A 6 6 0 0 1 16.5 45.5 A 6 6 0 0 1 10.5 39.5 Z " stroke-width="1" stroke="#333333" fill="none" />
  <path d="M 12.7857142857143 39.5  L 15.5714285714286 42.2857142857143  " stroke-width="2.78571428571429" stroke="#333333" fill="none" />
  <path d="M 15.5714285714286 42.2857142857143  L 20.2142857142857 35.7857142857143  " stroke-width="2.78571428571429" stroke="#333333" fill="none" />
</svg>