<?xml version="1.0" encoding="utf-8"?>
<svg version="1.1" xmlns:xlink="http://www.w3.org/1999/xlink" width="17px" height="17px" viewBox="13 125  17 17" xmlns="http://www.w3.org/2000/svg">
  <path d="M 13.5 133  A 7.5 7.5 0 0 1 21 125.5 L 22 125.5  A 7.5 7.5 0 0 1 29.5 133 L 29.5 134  A 7.5 7.5 0 0 1 22 141.5 L 21 141.5  A 7.5 7.5 0 0 1 13.5 134 L 13.5 133  Z " fill-rule="nonzero" fill="#ffffff" stroke="none" />
  <path d="M 13.5 133  A 7.5 7.5 0 0 1 21 125.5 L 22 125.5  A 7.5 7.5 0 0 1 29.5 133 L 29.5 134  A 7.5 7.5 0 0 1 22 141.5 L 21 141.5  A 7.5 7.5 0 0 1 13.5 134 L 13.5 133  Z " stroke-width="1" stroke="#797979" fill="none" />
</svg>