<?xml version="1.0" encoding="utf-8"?>
<svg version="1.1" xmlns:xlink="http://www.w3.org/1999/xlink" width="17px" height="17px" viewBox="13 90  17 17" xmlns="http://www.w3.org/2000/svg">
  <path d="M 13.5 98  A 7.5 7.5 0 0 1 21 90.5 L 22 90.5  A 7.5 7.5 0 0 1 29.5 98 L 29.5 99  A 7.5 7.5 0 0 1 22 106.5 L 21 106.5  A 7.5 7.5 0 0 1 13.5 99 L 13.5 98  Z " fill-rule="nonzero" fill="#ffffff" stroke="none" />
  <path d="M 13.5 98  A 7.5 7.5 0 0 1 21 90.5 L 22 90.5  A 7.5 7.5 0 0 1 29.5 98 L 29.5 99  A 7.5 7.5 0 0 1 22 106.5 L 21 106.5  A 7.5 7.5 0 0 1 13.5 99 L 13.5 98  Z " stroke-width="1" stroke="#797979" fill="none" />
</svg>