<?xml version="1.0" encoding="utf-8"?>
<svg version="1.1" xmlns:xlink="http://www.w3.org/1999/xlink" width="17px" height="17px" viewBox="17 158  17 17" xmlns="http://www.w3.org/2000/svg">
  <path d="M 17.5 166  A 7.5 7.5 0 0 1 25 158.5 L 26 158.5  A 7.5 7.5 0 0 1 33.5 166 L 33.5 167  A 7.5 7.5 0 0 1 26 174.5 L 25 174.5  A 7.5 7.5 0 0 1 17.5 167 L 17.5 166  Z " fill-rule="nonzero" fill="#f0f0f0" stroke="none" />
  <path d="M 17.5 166  A 7.5 7.5 0 0 1 25 158.5 L 26 158.5  A 7.5 7.5 0 0 1 33.5 166 L 33.5 167  A 7.5 7.5 0 0 1 26 174.5 L 25 174.5  A 7.5 7.5 0 0 1 17.5 167 L 17.5 166  Z " stroke-width="1" stroke="#797979" fill="none" />
  <path d="M 20.6428571428571 166.5  L 24.2857142857143 170.142857142857  " stroke-width="3.64285714285714" stroke="#797979" fill="none" />
  <path d="M 24.2857142857143 170.142857142857  L 30.3571428571429 161.642857142857  " stroke-width="3.64285714285714" stroke="#797979" fill="none" />
</svg>