<?xml version="1.0" encoding="utf-8"?>
<svg version="1.1" xmlns:xlink="http://www.w3.org/1999/xlink" width="17px" height="17px" viewBox="17 124  17 17" xmlns="http://www.w3.org/2000/svg">
  <path d="M 17.5 132  A 7.5 7.5 0 0 1 25 124.5 L 26 124.5  A 7.5 7.5 0 0 1 33.5 132 L 33.5 133  A 7.5 7.5 0 0 1 26 140.5 L 25 140.5  A 7.5 7.5 0 0 1 17.5 133 L 17.5 132  Z " fill-rule="nonzero" fill="#ffffff" stroke="none" />
  <path d="M 17.5 132  A 7.5 7.5 0 0 1 25 124.5 L 26 124.5  A 7.5 7.5 0 0 1 33.5 132 L 33.5 133  A 7.5 7.5 0 0 1 26 140.5 L 25 140.5  A 7.5 7.5 0 0 1 17.5 133 L 17.5 132  Z " stroke-width="1" stroke="#797979" fill="none" />
</svg>