<?xml version="1.0" encoding="utf-8"?>
<svg version="1.1" xmlns:xlink="http://www.w3.org/1999/xlink" width="17px" height="17px" viewBox="17 89  17 17" xmlns="http://www.w3.org/2000/svg">
  <path d="M 17.5 97  A 7.5 7.5 0 0 1 25 89.5 L 26 89.5  A 7.5 7.5 0 0 1 33.5 97 L 33.5 98  A 7.5 7.5 0 0 1 26 105.5 L 25 105.5  A 7.5 7.5 0 0 1 17.5 98 L 17.5 97  Z " fill-rule="nonzero" fill="#ffffff" stroke="none" />
  <path d="M 17.5 97  A 7.5 7.5 0 0 1 25 89.5 L 26 89.5  A 7.5 7.5 0 0 1 33.5 97 L 33.5 98  A 7.5 7.5 0 0 1 26 105.5 L 25 105.5  A 7.5 7.5 0 0 1 17.5 98 L 17.5 97  Z " stroke-width="1" stroke="#797979" fill="none" />
</svg>