<?xml version="1.0" encoding="utf-8"?>
<svg version="1.1" xmlns:xlink="http://www.w3.org/1999/xlink" width="17px" height="17px" viewBox="16 122  17 17" xmlns="http://www.w3.org/2000/svg">
  <path d="M 16.5 130  A 7.5 7.5 0 0 1 24 122.5 L 25 122.5  A 7.5 7.5 0 0 1 32.5 130 L 32.5 131  A 7.5 7.5 0 0 1 25 138.5 L 24 138.5  A 7.5 7.5 0 0 1 16.5 131 L 16.5 130  Z " fill-rule="nonzero" fill="#f0f0f0" stroke="none" />
  <path d="M 16.5 130  A 7.5 7.5 0 0 1 24 122.5 L 25 122.5  A 7.5 7.5 0 0 1 32.5 130 L 32.5 131  A 7.5 7.5 0 0 1 25 138.5 L 24 138.5  A 7.5 7.5 0 0 1 16.5 131 L 16.5 130  Z " stroke-width="1" stroke="#797979" fill="none" />
</svg>