<?xml version="1.0" encoding="utf-8"?>
<svg version="1.1" xmlns:xlink="http://www.w3.org/1999/xlink" width="17px" height="17px" viewBox="16 90  17 17" xmlns="http://www.w3.org/2000/svg">
  <path d="M 16.5 98  A 7.5 7.5 0 0 1 24 90.5 L 25 90.5  A 7.5 7.5 0 0 1 32.5 98 L 32.5 99  A 7.5 7.5 0 0 1 25 106.5 L 24 106.5  A 7.5 7.5 0 0 1 16.5 99 L 16.5 98  Z " fill-rule="nonzero" fill="#ffffff" stroke="none" />
  <path d="M 16.5 98  A 7.5 7.5 0 0 1 24 90.5 L 25 90.5  A 7.5 7.5 0 0 1 32.5 98 L 32.5 99  A 7.5 7.5 0 0 1 25 106.5 L 24 106.5  A 7.5 7.5 0 0 1 16.5 99 L 16.5 98  Z " stroke-width="1" stroke="#797979" fill="none" />
  <path d="M 19.6428571428571 98.5  L 23.2857142857143 102.142857142857  " stroke-width="3.64285714285714" stroke="#797979" fill="none" />
  <path d="M 23.2857142857143 102.142857142857  L 29.3571428571429 93.6428571428571  " stroke-width="3.64285714285714" stroke="#797979" fill="none" />
</svg>