<?xml version="1.0" encoding="utf-8"?>
<svg version="1.1" xmlns:xlink="http://www.w3.org/1999/xlink" width="12px" height="12px" xmlns="http://www.w3.org/2000/svg">
  <g transform="matrix(1 0 0 1 -92 -314 )">
    <path d="M 9.3515625 6.8515625  C 9.45052083333333 6.75260416666667  9.5 6.63541666666667  9.5 6.5  L 9.5 5.5  C 9.5 5.36458333333333  9.45052083333333 5.24739583333333  9.3515625 5.1484375  C 9.25260416666667 5.04947916666667  9.13541666666667 5  9 5  L 7 5  L 7 3  C 7 2.86458333333333  6.95052083333333 2.74739583333333  6.8515625 2.6484375  C 6.75260416666667 2.54947916666667  6.63541666666667 2.5  6.5 2.5  L 5.5 2.5  C 5.36458333333333 2.5  5.24739583333333 2.54947916666667  5.1484375 2.6484375  C 5.04947916666667 2.74739583333333  5 2.86458333333333  5 3  L 5 5  L 3 5  C 2.86458333333333 5  2.74739583333333 5.04947916666667  2.6484375 5.1484375  C 2.54947916666667 5.24739583333333  2.5 5.36458333333333  2.5 5.5  L 2.5 6.5  C 2.5 6.63541666666667  2.54947916666667 6.75260416666667  2.6484375 6.8515625  C 2.74739583333333 6.95052083333333  2.86458333333333 7  3 7  L 5 7  L 5 9  C 5 9.13541666666667  5.04947916666667 9.25260416666667  5.1484375 9.3515625  C 5.24739583333333 9.45052083333333  5.36458333333333 9.5  5.5 9.5  L 6.5 9.5  C 6.63541666666667 9.5  6.75260416666667 9.45052083333333  6.8515625 9.3515625  C 6.95052083333333 9.25260416666667  7 9.13541666666667  7 9  L 7 7  L 9 7  C 9.13541666666667 7  9.25260416666667 6.95052083333333  9.3515625 6.8515625  Z M 11.1953125 2.98828125  C 11.7317708333333 3.90755208333333  12 4.91145833333333  12 6  C 12 7.08854166666667  11.7317708333333 8.09244791666666  11.1953125 9.01171875  C 10.6588541666667 9.93098958333333  9.93098958333333 10.6588541666667  9.01171875 11.1953125  C 8.09244791666667 11.7317708333333  7.08854166666667 12  6 12  C 4.91145833333333 12  3.90755208333333 11.7317708333333  2.98828125 11.1953125  C 2.06901041666667 10.6588541666667  1.34114583333333 9.93098958333333  0.8046875 9.01171875  C 0.268229166666667 8.09244791666666  0 7.08854166666667  0 6  C 0 4.91145833333333  0.268229166666667 3.90755208333333  0.8046875 2.98828125  C 1.34114583333333 2.06901041666667  2.06901041666667 1.34114583333333  2.98828125 0.8046875  C 3.90755208333333 0.268229166666666  4.91145833333333 0  6 0  C 7.08854166666667 0  8.09244791666667 0.268229166666666  9.01171875 0.8046875  C 9.93098958333333 1.34114583333333  10.6588541666667 2.06901041666667  11.1953125 2.98828125  Z " fill-rule="nonzero" fill="#337ab7" stroke="none" transform="matrix(1 0 0 1 92 314 )" />
  </g>
</svg>