<?xml version="1.0" encoding="utf-8"?>
<svg version="1.1" xmlns:xlink="http://www.w3.org/1999/xlink" width="17px" height="17px" viewBox="5 389  17 17" xmlns="http://www.w3.org/2000/svg">
  <path d="M 5.5 397  A 7.5 7.5 0 0 1 13 389.5 L 14 389.5  A 7.5 7.5 0 0 1 21.5 397 L 21.5 398  A 7.5 7.5 0 0 1 14 405.5 L 13 405.5  A 7.5 7.5 0 0 1 5.5 398 L 5.5 397  Z " fill-rule="nonzero" fill="#f0f0f0" stroke="none" />
  <path d="M 5.5 397  A 7.5 7.5 0 0 1 13 389.5 L 14 389.5  A 7.5 7.5 0 0 1 21.5 397 L 21.5 398  A 7.5 7.5 0 0 1 14 405.5 L 13 405.5  A 7.5 7.5 0 0 1 5.5 398 L 5.5 397  Z " stroke-width="1" stroke="#797979" fill="none" />
  <path d="M 8.64285714285714 397.5  L 12.2857142857143 401.142857142857  " stroke-width="3.64285714285714" stroke="#797979" fill="none" />
  <path d="M 12.2857142857143 401.142857142857  L 18.3571428571429 392.642857142857  " stroke-width="3.64285714285714" stroke="#797979" fill="none" />
</svg>