<?xml version="1.0" encoding="utf-8"?>
<svg version="1.1" xmlns:xlink="http://www.w3.org/1999/xlink" width="17px" height="17px" viewBox="5 352  17 17" xmlns="http://www.w3.org/2000/svg">
  <path d="M 5.5 360  A 7.5 7.5 0 0 1 13 352.5 L 14 352.5  A 7.5 7.5 0 0 1 21.5 360 L 21.5 361  A 7.5 7.5 0 0 1 14 368.5 L 13 368.5  A 7.5 7.5 0 0 1 5.5 361 L 5.5 360  Z " fill-rule="nonzero" fill="#f0f0f0" stroke="none" />
  <path d="M 5.5 360  A 7.5 7.5 0 0 1 13 352.5 L 14 352.5  A 7.5 7.5 0 0 1 21.5 360 L 21.5 361  A 7.5 7.5 0 0 1 14 368.5 L 13 368.5  A 7.5 7.5 0 0 1 5.5 361 L 5.5 360  Z " stroke-width="1" stroke="#797979" fill="none" />
  <path d="M 8.64285714285714 360.5  L 12.2857142857143 364.142857142857  " stroke-width="3.64285714285714" stroke="#797979" fill="none" />
  <path d="M 12.2857142857143 364.142857142857  L 18.3571428571429 355.642857142857  " stroke-width="3.64285714285714" stroke="#797979" fill="none" />
</svg>