<?xml version="1.0" encoding="utf-8"?>
<svg version="1.1" xmlns:xlink="http://www.w3.org/1999/xlink" width="17px" height="17px" viewBox="5 313  17 17" xmlns="http://www.w3.org/2000/svg">
  <path d="M 5.5 321  A 7.5 7.5 0 0 1 13 313.5 L 14 313.5  A 7.5 7.5 0 0 1 21.5 321 L 21.5 322  A 7.5 7.5 0 0 1 14 329.5 L 13 329.5  A 7.5 7.5 0 0 1 5.5 322 L 5.5 321  Z " fill-rule="nonzero" fill="#f0f0f0" stroke="none" />
  <path d="M 5.5 321  A 7.5 7.5 0 0 1 13 313.5 L 14 313.5  A 7.5 7.5 0 0 1 21.5 321 L 21.5 322  A 7.5 7.5 0 0 1 14 329.5 L 13 329.5  A 7.5 7.5 0 0 1 5.5 322 L 5.5 321  Z " stroke-width="1" stroke="#797979" fill="none" />
</svg>