<?xml version="1.0" encoding="utf-8"?>
<svg version="1.1" xmlns:xlink="http://www.w3.org/1999/xlink" width="17px" height="17px" viewBox="5 236  17 17" xmlns="http://www.w3.org/2000/svg">
  <path d="M 5.5 244  A 7.5 7.5 0 0 1 13 236.5 L 14 236.5  A 7.5 7.5 0 0 1 21.5 244 L 21.5 245  A 7.5 7.5 0 0 1 14 252.5 L 13 252.5  A 7.5 7.5 0 0 1 5.5 245 L 5.5 244  Z " fill-rule="nonzero" fill="#ffffff" stroke="none" />
  <path d="M 5.5 244  A 7.5 7.5 0 0 1 13 236.5 L 14 236.5  A 7.5 7.5 0 0 1 21.5 244 L 21.5 245  A 7.5 7.5 0 0 1 14 252.5 L 13 252.5  A 7.5 7.5 0 0 1 5.5 245 L 5.5 244  Z " stroke-width="1" stroke="#797979" fill="none" />
</svg>