<?xml version="1.0" encoding="utf-8"?>
<svg version="1.1" xmlns:xlink="http://www.w3.org/1999/xlink" width="17px" height="17px" viewBox="6 201  17 17" xmlns="http://www.w3.org/2000/svg">
  <path d="M 6.5 209  A 7.5 7.5 0 0 1 14 201.5 L 15 201.5  A 7.5 7.5 0 0 1 22.5 209 L 22.5 210  A 7.5 7.5 0 0 1 15 217.5 L 14 217.5  A 7.5 7.5 0 0 1 6.5 210 L 6.5 209  Z " fill-rule="nonzero" fill="#f0f0f0" stroke="none" />
  <path d="M 6.5 209  A 7.5 7.5 0 0 1 14 201.5 L 15 201.5  A 7.5 7.5 0 0 1 22.5 209 L 22.5 210  A 7.5 7.5 0 0 1 15 217.5 L 14 217.5  A 7.5 7.5 0 0 1 6.5 210 L 6.5 209  Z " stroke-width="1" stroke="#797979" fill="none" />
  <path d="M 9.64285714285714 209.5  L 13.2857142857143 213.142857142857  " stroke-width="3.64285714285714" stroke="#797979" fill="none" />
  <path d="M 13.2857142857143 213.142857142857  L 19.3571428571429 204.642857142857  " stroke-width="3.64285714285714" stroke="#797979" fill="none" />
</svg>