<?xml version="1.0" encoding="utf-8"?>
<svg version="1.1" xmlns:xlink="http://www.w3.org/1999/xlink" width="17px" height="17px" viewBox="5 161  17 17" xmlns="http://www.w3.org/2000/svg">
  <path d="M 5.5 169  A 7.5 7.5 0 0 1 13 161.5 L 14 161.5  A 7.5 7.5 0 0 1 21.5 169 L 21.5 170  A 7.5 7.5 0 0 1 14 177.5 L 13 177.5  A 7.5 7.5 0 0 1 5.5 170 L 5.5 169  Z " fill-rule="nonzero" fill="#ffffff" stroke="none" />
  <path d="M 5.5 169  A 7.5 7.5 0 0 1 13 161.5 L 14 161.5  A 7.5 7.5 0 0 1 21.5 169 L 21.5 170  A 7.5 7.5 0 0 1 14 177.5 L 13 177.5  A 7.5 7.5 0 0 1 5.5 170 L 5.5 169  Z " stroke-width="1" stroke="#797979" fill="none" />
</svg>