<?xml version="1.0" encoding="utf-8"?>
<svg version="1.1" xmlns:xlink="http://www.w3.org/1999/xlink" width="17px" height="17px" viewBox="5 122  17 17" xmlns="http://www.w3.org/2000/svg">
  <path d="M 5.5 130  A 7.5 7.5 0 0 1 13 122.5 L 14 122.5  A 7.5 7.5 0 0 1 21.5 130 L 21.5 131  A 7.5 7.5 0 0 1 14 138.5 L 13 138.5  A 7.5 7.5 0 0 1 5.5 131 L 5.5 130  Z " fill-rule="nonzero" fill="#f0f0f0" stroke="none" />
  <path d="M 5.5 130  A 7.5 7.5 0 0 1 13 122.5 L 14 122.5  A 7.5 7.5 0 0 1 21.5 130 L 21.5 131  A 7.5 7.5 0 0 1 14 138.5 L 13 138.5  A 7.5 7.5 0 0 1 5.5 131 L 5.5 130  Z " stroke-width="1" stroke="#797979" fill="none" />
</svg>