<?xml version="1.0" encoding="utf-8"?>
<svg version="1.1" xmlns:xlink="http://www.w3.org/1999/xlink" width="17px" height="17px" viewBox="5 89  17 17" xmlns="http://www.w3.org/2000/svg">
  <path d="M 5.5 97  A 7.5 7.5 0 0 1 13 89.5 L 14 89.5  A 7.5 7.5 0 0 1 21.5 97 L 21.5 98  A 7.5 7.5 0 0 1 14 105.5 L 13 105.5  A 7.5 7.5 0 0 1 5.5 98 L 5.5 97  Z " fill-rule="nonzero" fill="#f0f0f0" stroke="none" />
  <path d="M 5.5 97  A 7.5 7.5 0 0 1 13 89.5 L 14 89.5  A 7.5 7.5 0 0 1 21.5 97 L 21.5 98  A 7.5 7.5 0 0 1 14 105.5 L 13 105.5  A 7.5 7.5 0 0 1 5.5 98 L 5.5 97  Z " stroke-width="1" stroke="#797979" fill="none" />
</svg>