<?xml version="1.0" encoding="utf-8"?>
<svg version="1.1" xmlns:xlink="http://www.w3.org/1999/xlink" width="17px" height="17px" viewBox="4 57  17 17" xmlns="http://www.w3.org/2000/svg">
  <path d="M 4.5 65  A 7.5 7.5 0 0 1 12 57.5 L 13 57.5  A 7.5 7.5 0 0 1 20.5 65 L 20.5 66  A 7.5 7.5 0 0 1 13 73.5 L 12 73.5  A 7.5 7.5 0 0 1 4.5 66 L 4.5 65  Z " fill-rule="nonzero" fill="#ffffff" stroke="none" />
  <path d="M 4.5 65  A 7.5 7.5 0 0 1 12 57.5 L 13 57.5  A 7.5 7.5 0 0 1 20.5 65 L 20.5 66  A 7.5 7.5 0 0 1 13 73.5 L 12 73.5  A 7.5 7.5 0 0 1 4.5 66 L 4.5 65  Z " stroke-width="1" stroke="#797979" fill="none" />
  <path d="M 7.64285714285714 65.5  L 11.2857142857143 69.1428571428572  " stroke-width="3.64285714285714" stroke="#797979" fill="none" />
  <path d="M 11.2857142857143 69.1428571428572  L 17.3571428571429 60.6428571428571  " stroke-width="3.64285714285714" stroke="#797979" fill="none" />
</svg>