<?xml version="1.0" encoding="utf-8"?>
<svg version="1.1" xmlns:xlink="http://www.w3.org/1999/xlink" width="17px" height="30px" xmlns="http://www.w3.org/2000/svg">
  <g transform="matrix(1 0 0 1 -17 -153 )">
    <path d="M 16.4392361111111 0.556640625  C 16.8130787037037 0.927734374999996  17 1.3671875  17 1.875  L 17 28.125  C 17 28.6328125  16.8130787037037 29.072265625  16.4392361111111 29.443359375  C 16.0653935185185 29.814453125  15.6226851851852 30  15.1111111111111 30  C 14.599537037037 30  14.1568287037037 29.814453125  13.7829861111111 29.443359375  L 0.560763888888889 16.318359375  C 0.186921296296297 15.947265625  0 15.5078125  0 15  C 0 14.4921875  0.186921296296297 14.052734375  0.560763888888889 13.681640625  L 13.7829861111111 0.556640625  C 14.1568287037037 0.185546874999998  14.599537037037 0  15.1111111111111 0  C 15.6226851851852 0  16.0653935185185 0.185546874999998  16.4392361111111 0.556640625  Z " fill-rule="nonzero" fill="#7f7f7f" stroke="none" transform="matrix(1 0 0 1 17 153 )" />
  </g>
</svg>