<?xml version="1.0" encoding="utf-8"?>
<svg version="1.1" xmlns:xlink="http://www.w3.org/1999/xlink" width="17px" height="17px" viewBox="13 349  17 17" xmlns="http://www.w3.org/2000/svg">
  <path d="M 13.5 357  A 7.5 7.5 0 0 1 21 349.5 L 22 349.5  A 7.5 7.5 0 0 1 29.5 357 L 29.5 358  A 7.5 7.5 0 0 1 22 365.5 L 21 365.5  A 7.5 7.5 0 0 1 13.5 358 L 13.5 357  Z " fill-rule="nonzero" fill="#f0f0f0" stroke="none" />
  <path d="M 13.5 357  A 7.5 7.5 0 0 1 21 349.5 L 22 349.5  A 7.5 7.5 0 0 1 29.5 357 L 29.5 358  A 7.5 7.5 0 0 1 22 365.5 L 21 365.5  A 7.5 7.5 0 0 1 13.5 358 L 13.5 357  Z " stroke-width="1" stroke="#797979" fill="none" />
</svg>