<?xml version="1.0" encoding="utf-8"?>
<svg version="1.1" xmlns:xlink="http://www.w3.org/1999/xlink" width="17px" height="17px" viewBox="13 312  17 17" xmlns="http://www.w3.org/2000/svg">
  <path d="M 13.5 320  A 7.5 7.5 0 0 1 21 312.5 L 22 312.5  A 7.5 7.5 0 0 1 29.5 320 L 29.5 321  A 7.5 7.5 0 0 1 22 328.5 L 21 328.5  A 7.5 7.5 0 0 1 13.5 321 L 13.5 320  Z " fill-rule="nonzero" fill="#ffffff" stroke="none" />
  <path d="M 13.5 320  A 7.5 7.5 0 0 1 21 312.5 L 22 312.5  A 7.5 7.5 0 0 1 29.5 320 L 29.5 321  A 7.5 7.5 0 0 1 22 328.5 L 21 328.5  A 7.5 7.5 0 0 1 13.5 321 L 13.5 320  Z " stroke-width="1" stroke="#797979" fill="none" />
</svg>