<?xml version="1.0" encoding="utf-8"?>
<svg version="1.1" xmlns:xlink="http://www.w3.org/1999/xlink" width="17px" height="17px" viewBox="13 242  17 17" xmlns="http://www.w3.org/2000/svg">
  <path d="M 13.5 250  A 7.5 7.5 0 0 1 21 242.5 L 22 242.5  A 7.5 7.5 0 0 1 29.5 250 L 29.5 251  A 7.5 7.5 0 0 1 22 258.5 L 21 258.5  A 7.5 7.5 0 0 1 13.5 251 L 13.5 250  Z " fill-rule="nonzero" fill="#f0f0f0" stroke="none" />
  <path d="M 13.5 250  A 7.5 7.5 0 0 1 21 242.5 L 22 242.5  A 7.5 7.5 0 0 1 29.5 250 L 29.5 251  A 7.5 7.5 0 0 1 22 258.5 L 21 258.5  A 7.5 7.5 0 0 1 13.5 251 L 13.5 250  Z " stroke-width="1" stroke="#797979" fill="none" />
</svg>