<?xml version="1.0" encoding="utf-8"?>
<svg version="1.1" xmlns:xlink="http://www.w3.org/1999/xlink" width="17px" height="17px" viewBox="13 206  17 17" xmlns="http://www.w3.org/2000/svg">
  <path d="M 13.5 214  A 7.5 7.5 0 0 1 21 206.5 L 22 206.5  A 7.5 7.5 0 0 1 29.5 214 L 29.5 215  A 7.5 7.5 0 0 1 22 222.5 L 21 222.5  A 7.5 7.5 0 0 1 13.5 215 L 13.5 214  Z " fill-rule="nonzero" fill="#ffffff" stroke="none" />
  <path d="M 13.5 214  A 7.5 7.5 0 0 1 21 206.5 L 22 206.5  A 7.5 7.5 0 0 1 29.5 214 L 29.5 215  A 7.5 7.5 0 0 1 22 222.5 L 21 222.5  A 7.5 7.5 0 0 1 13.5 215 L 13.5 214  Z " stroke-width="1" stroke="#797979" fill="none" />
  <path d="M 16.6428571428571 214.5  L 20.2857142857143 218.142857142857  " stroke-width="3.64285714285714" stroke="#797979" fill="none" />
  <path d="M 20.2857142857143 218.142857142857  L 26.3571428571429 209.642857142857  " stroke-width="3.64285714285714" stroke="#797979" fill="none" />
</svg>