<?xml version="1.0" encoding="utf-8"?>
<svg version="1.1" xmlns:xlink="http://www.w3.org/1999/xlink" width="17px" height="17px" viewBox="13 135  17 17" xmlns="http://www.w3.org/2000/svg">
  <path d="M 13.5 143  A 7.5 7.5 0 0 1 21 135.5 L 22 135.5  A 7.5 7.5 0 0 1 29.5 143 L 29.5 144  A 7.5 7.5 0 0 1 22 151.5 L 21 151.5  A 7.5 7.5 0 0 1 13.5 144 L 13.5 143  Z " fill-rule="nonzero" fill="#f0f0f0" stroke="none" />
  <path d="M 13.5 143  A 7.5 7.5 0 0 1 21 135.5 L 22 135.5  A 7.5 7.5 0 0 1 29.5 143 L 29.5 144  A 7.5 7.5 0 0 1 22 151.5 L 21 151.5  A 7.5 7.5 0 0 1 13.5 144 L 13.5 143  Z " stroke-width="1" stroke="#797979" fill="none" />
  <path d="M 16.6428571428571 143.5  L 20.2857142857143 147.142857142857  " stroke-width="3.64285714285714" stroke="#797979" fill="none" />
  <path d="M 20.2857142857143 147.142857142857  L 26.3571428571429 138.642857142857  " stroke-width="3.64285714285714" stroke="#797979" fill="none" />
</svg>