<?xml version="1.0" encoding="utf-8"?>
<svg version="1.1" xmlns:xlink="http://www.w3.org/1999/xlink" width="17px" height="17px" viewBox="13 102  17 17" xmlns="http://www.w3.org/2000/svg">
  <path d="M 13.5 110  A 7.5 7.5 0 0 1 21 102.5 L 22 102.5  A 7.5 7.5 0 0 1 29.5 110 L 29.5 111  A 7.5 7.5 0 0 1 22 118.5 L 21 118.5  A 7.5 7.5 0 0 1 13.5 111 L 13.5 110  Z " fill-rule="nonzero" fill="#f0f0f0" stroke="none" />
  <path d="M 13.5 110  A 7.5 7.5 0 0 1 21 102.5 L 22 102.5  A 7.5 7.5 0 0 1 29.5 110 L 29.5 111  A 7.5 7.5 0 0 1 22 118.5 L 21 118.5  A 7.5 7.5 0 0 1 13.5 111 L 13.5 110  Z " stroke-width="1" stroke="#797979" fill="none" />
</svg>