<?xml version="1.0" encoding="utf-8"?>
<svg version="1.1" xmlns:xlink="http://www.w3.org/1999/xlink" width="14px" height="14px" viewBox="13 68.5  14 14" xmlns="http://www.w3.org/2000/svg">
  <path d="M 13.5 74.5  A 5.5 5.5 0 0 1 19 69 L 21 69  A 5.5 5.5 0 0 1 26.5 74.5 L 26.5 76.5  A 5.5 5.5 0 0 1 21 82 L 19 82  A 5.5 5.5 0 0 1 13.5 76.5 L 13.5 74.5  Z " fill-rule="nonzero" fill="#f0f0f0" stroke="none" />
  <path d="M 13.5 74.5  A 5.5 5.5 0 0 1 19 69 L 21 69  A 5.5 5.5 0 0 1 26.5 74.5 L 26.5 76.5  A 5.5 5.5 0 0 1 21 82 L 19 82  A 5.5 5.5 0 0 1 13.5 76.5 L 13.5 74.5  Z " stroke-width="1" stroke="#797979" fill="none" />
  <path d="M 16.5 76  L 19.5 79  " stroke-width="3" stroke="#797979" fill="none" />
  <path d="M 19.5 79  L 24.5 72  " stroke-width="3" stroke="#797979" fill="none" />
</svg>