<?xml version="1.0" encoding="utf-8"?>
<svg version="1.1" xmlns:xlink="http://www.w3.org/1999/xlink" width="17px" height="17px" viewBox="20 357  17 17" xmlns="http://www.w3.org/2000/svg">
  <path d="M 20.5 365  A 7.5 7.5 0 0 1 28 357.5 L 29 357.5  A 7.5 7.5 0 0 1 36.5 365 L 36.5 366  A 7.5 7.5 0 0 1 29 373.5 L 28 373.5  A 7.5 7.5 0 0 1 20.5 366 L 20.5 365  Z " fill-rule="nonzero" fill="#ffffff" stroke="none" />
  <path d="M 20.5 365  A 7.5 7.5 0 0 1 28 357.5 L 29 357.5  A 7.5 7.5 0 0 1 36.5 365 L 36.5 366  A 7.5 7.5 0 0 1 29 373.5 L 28 373.5  A 7.5 7.5 0 0 1 20.5 366 L 20.5 365  Z " stroke-width="1" stroke="#797979" fill="none" />
  <path d="M 23.6428571428571 365.5  L 27.2857142857143 369.142857142857  " stroke-width="3.64285714285714" stroke="#797979" fill="none" />
  <path d="M 27.2857142857143 369.142857142857  L 33.3571428571429 360.642857142857  " stroke-width="3.64285714285714" stroke="#797979" fill="none" />
</svg>