<?xml version="1.0" encoding="utf-8"?>
<svg version="1.1" xmlns:xlink="http://www.w3.org/1999/xlink" width="17px" height="17px" viewBox="20 317  17 17" xmlns="http://www.w3.org/2000/svg">
  <path d="M 20.5 325  A 7.5 7.5 0 0 1 28 317.5 L 29 317.5  A 7.5 7.5 0 0 1 36.5 325 L 36.5 326  A 7.5 7.5 0 0 1 29 333.5 L 28 333.5  A 7.5 7.5 0 0 1 20.5 326 L 20.5 325  Z " fill-rule="nonzero" fill="#f0f0f0" stroke="none" />
  <path d="M 20.5 325  A 7.5 7.5 0 0 1 28 317.5 L 29 317.5  A 7.5 7.5 0 0 1 36.5 325 L 36.5 326  A 7.5 7.5 0 0 1 29 333.5 L 28 333.5  A 7.5 7.5 0 0 1 20.5 326 L 20.5 325  Z " stroke-width="1" stroke="#797979" fill="none" />
  <path d="M 23.6428571428571 325.5  L 27.2857142857143 329.142857142857  " stroke-width="3.64285714285714" stroke="#797979" fill="none" />
  <path d="M 27.2857142857143 329.142857142857  L 33.3571428571429 320.642857142857  " stroke-width="3.64285714285714" stroke="#797979" fill="none" />
</svg>