<?xml version="1.0" encoding="utf-8"?>
<svg version="1.1" xmlns:xlink="http://www.w3.org/1999/xlink" width="17px" height="17px" viewBox="20 282  17 17" xmlns="http://www.w3.org/2000/svg">
  <path d="M 20.5 290  A 7.5 7.5 0 0 1 28 282.5 L 29 282.5  A 7.5 7.5 0 0 1 36.5 290 L 36.5 291  A 7.5 7.5 0 0 1 29 298.5 L 28 298.5  A 7.5 7.5 0 0 1 20.5 291 L 20.5 290  Z " fill-rule="nonzero" fill="#ffffff" stroke="none" />
  <path d="M 20.5 290  A 7.5 7.5 0 0 1 28 282.5 L 29 282.5  A 7.5 7.5 0 0 1 36.5 290 L 36.5 291  A 7.5 7.5 0 0 1 29 298.5 L 28 298.5  A 7.5 7.5 0 0 1 20.5 291 L 20.5 290  Z " stroke-width="1" stroke="#797979" fill="none" />
</svg>