<?xml version="1.0" encoding="utf-8"?>
<svg version="1.1" xmlns:xlink="http://www.w3.org/1999/xlink" width="17px" height="17px" viewBox="20 243  17 17" xmlns="http://www.w3.org/2000/svg">
  <path d="M 20.5 251  A 7.5 7.5 0 0 1 28 243.5 L 29 243.5  A 7.5 7.5 0 0 1 36.5 251 L 36.5 252  A 7.5 7.5 0 0 1 29 259.5 L 28 259.5  A 7.5 7.5 0 0 1 20.5 252 L 20.5 251  Z " fill-rule="nonzero" fill="#ffffff" stroke="none" />
  <path d="M 20.5 251  A 7.5 7.5 0 0 1 28 243.5 L 29 243.5  A 7.5 7.5 0 0 1 36.5 251 L 36.5 252  A 7.5 7.5 0 0 1 29 259.5 L 28 259.5  A 7.5 7.5 0 0 1 20.5 252 L 20.5 251  Z " stroke-width="1" stroke="#797979" fill="none" />
</svg>