<?xml version="1.0" encoding="utf-8"?>
<svg version="1.1" xmlns:xlink="http://www.w3.org/1999/xlink" width="17px" height="17px" viewBox="20 206  17 17" xmlns="http://www.w3.org/2000/svg">
  <path d="M 20.5 214  A 7.5 7.5 0 0 1 28 206.5 L 29 206.5  A 7.5 7.5 0 0 1 36.5 214 L 36.5 215  A 7.5 7.5 0 0 1 29 222.5 L 28 222.5  A 7.5 7.5 0 0 1 20.5 215 L 20.5 214  Z " fill-rule="nonzero" fill="#ffffff" stroke="none" />
  <path d="M 20.5 214  A 7.5 7.5 0 0 1 28 206.5 L 29 206.5  A 7.5 7.5 0 0 1 36.5 214 L 36.5 215  A 7.5 7.5 0 0 1 29 222.5 L 28 222.5  A 7.5 7.5 0 0 1 20.5 215 L 20.5 214  Z " stroke-width="1" stroke="#797979" fill="none" />
  <path d="M 23.6428571428571 214.5  L 27.2857142857143 218.142857142857  " stroke-width="3.64285714285714" stroke="#797979" fill="none" />
  <path d="M 27.2857142857143 218.142857142857  L 33.3571428571429 209.642857142857  " stroke-width="3.64285714285714" stroke="#797979" fill="none" />
</svg>