<?xml version="1.0" encoding="utf-8"?>
<svg version="1.1" xmlns:xlink="http://www.w3.org/1999/xlink" width="17px" height="17px" viewBox="21 102  17 17" xmlns="http://www.w3.org/2000/svg">
  <path d="M 21.5 110  A 7.5 7.5 0 0 1 29 102.5 L 30 102.5  A 7.5 7.5 0 0 1 37.5 110 L 37.5 111  A 7.5 7.5 0 0 1 30 118.5 L 29 118.5  A 7.5 7.5 0 0 1 21.5 111 L 21.5 110  Z " fill-rule="nonzero" fill="#ffffff" stroke="none" />
  <path d="M 21.5 110  A 7.5 7.5 0 0 1 29 102.5 L 30 102.5  A 7.5 7.5 0 0 1 37.5 110 L 37.5 111  A 7.5 7.5 0 0 1 30 118.5 L 29 118.5  A 7.5 7.5 0 0 1 21.5 111 L 21.5 110  Z " stroke-width="1" stroke="#797979" fill="none" />
</svg>