<?xml version="1.0" encoding="utf-8"?>
<svg version="1.1" xmlns:xlink="http://www.w3.org/1999/xlink" width="17px" height="17px" viewBox="21 102  17 17" xmlns="http://www.w3.org/2000/svg">
  <path d="M 21.5 110  A 7.5 7.5 0 0 1 29 102.5 L 30 102.5  A 7.5 7.5 0 0 1 37.5 110 L 37.5 111  A 7.5 7.5 0 0 1 30 118.5 L 29 118.5  A 7.5 7.5 0 0 1 21.5 111 L 21.5 110  Z " fill-rule="nonzero" fill="#f0f0f0" stroke="none" />
  <path d="M 21.5 110  A 7.5 7.5 0 0 1 29 102.5 L 30 102.5  A 7.5 7.5 0 0 1 37.5 110 L 37.5 111  A 7.5 7.5 0 0 1 30 118.5 L 29 118.5  A 7.5 7.5 0 0 1 21.5 111 L 21.5 110  Z " stroke-width="1" stroke="#797979" fill="none" />
  <path d="M 24.6428571428571 110.5  L 28.2857142857143 114.142857142857  " stroke-width="3.64285714285714" stroke="#797979" fill="none" />
  <path d="M 28.2857142857143 114.142857142857  L 34.3571428571429 105.642857142857  " stroke-width="3.64285714285714" stroke="#797979" fill="none" />
</svg>