<?xml version="1.0" encoding="utf-8"?>
<svg version="1.1" xmlns:xlink="http://www.w3.org/1999/xlink" width="14px" height="14px" viewBox="21 71.5  14 14" xmlns="http://www.w3.org/2000/svg">
  <path d="M 21.5 78.5  A 6.5 6.5 0 0 1 28 72 A 6.5 6.5 0 0 1 34.5 78.5 A 6.5 6.5 0 0 1 28 85 A 6.5 6.5 0 0 1 21.5 78.5 Z " fill-rule="nonzero" fill="#f0f0f0" stroke="none" />
  <path d="M 21.5 78.5  A 6.5 6.5 0 0 1 28 72 A 6.5 6.5 0 0 1 34.5 78.5 A 6.5 6.5 0 0 1 28 85 A 6.5 6.5 0 0 1 21.5 78.5 Z " stroke-width="1" stroke="#797979" fill="none" />
  <path d="M 24.5 79  L 27.5 82  " stroke-width="3" stroke="#797979" fill="none" />
  <path d="M 27.5 82  L 32.5 75  " stroke-width="3" stroke="#797979" fill="none" />
</svg>