<?xml version="1.0" encoding="utf-8"?>
<svg version="1.1" xmlns:xlink="http://www.w3.org/1999/xlink" width="13px" height="13px" viewBox="33 16  13 13" xmlns="http://www.w3.org/2000/svg">
  <path d="M 33.5 20  A 3.5 3.5 0 0 1 37 16.5 L 42 16.5  A 3.5 3.5 0 0 1 45.5 20 L 45.5 25  A 3.5 3.5 0 0 1 42 28.5 L 37 28.5  A 3.5 3.5 0 0 1 33.5 25 L 33.5 20  Z " fill-rule="nonzero" fill="#f0f0f0" stroke="none" />
  <path d="M 33.5 20  A 3.5 3.5 0 0 1 37 16.5 L 42 16.5  A 3.5 3.5 0 0 1 45.5 20 L 45.5 25  A 3.5 3.5 0 0 1 42 28.5 L 37 28.5  A 3.5 3.5 0 0 1 33.5 25 L 33.5 20  Z " stroke-width="1" stroke="#797979" fill="none" />
</svg>