<?xml version="1.0" encoding="utf-8"?>
<svg version="1.1" xmlns:xlink="http://www.w3.org/1999/xlink" width="13px" height="13px" viewBox="33 16  13 13" xmlns="http://www.w3.org/2000/svg">
  <path d="M 33.5 20  A 3.5 3.5 0 0 1 37 16.5 L 42 16.5  A 3.5 3.5 0 0 1 45.5 20 L 45.5 25  A 3.5 3.5 0 0 1 42 28.5 L 37 28.5  A 3.5 3.5 0 0 1 33.5 25 L 33.5 20  Z " fill-rule="nonzero" fill="#ffffff" stroke="none" />
  <path d="M 33.5 20  A 3.5 3.5 0 0 1 37 16.5 L 42 16.5  A 3.5 3.5 0 0 1 45.5 20 L 45.5 25  A 3.5 3.5 0 0 1 42 28.5 L 37 28.5  A 3.5 3.5 0 0 1 33.5 25 L 33.5 20  Z " stroke-width="1" stroke="#797979" fill="none" />
  <path d="M 35.7857142857143 22.5  L 38.5714285714286 25.2857142857143  " stroke-width="2.78571428571429" stroke="#797979" fill="none" />
  <path d="M 38.5714285714286 25.2857142857143  L 43.2142857142857 18.7857142857143  " stroke-width="2.78571428571429" stroke="#797979" fill="none" />
</svg>