<?xml version="1.0" encoding="utf-8"?>
<svg version="1.1" xmlns:xlink="http://www.w3.org/1999/xlink" width="13px" height="13px" viewBox="25 166.5  13 13" xmlns="http://www.w3.org/2000/svg">
  <path d="M 25.5 170.5  A 3.5 3.5 0 0 1 29 167 L 34 167  A 3.5 3.5 0 0 1 37.5 170.5 L 37.5 175.5  A 3.5 3.5 0 0 1 34 179 L 29 179  A 3.5 3.5 0 0 1 25.5 175.5 L 25.5 170.5  Z " fill-rule="nonzero" fill="#ffffff" stroke="none" />
  <path d="M 25.5 170.5  A 3.5 3.5 0 0 1 29 167 L 34 167  A 3.5 3.5 0 0 1 37.5 170.5 L 37.5 175.5  A 3.5 3.5 0 0 1 34 179 L 29 179  A 3.5 3.5 0 0 1 25.5 175.5 L 25.5 170.5  Z " stroke-width="1" stroke="#797979" fill="none" />
  <path d="M 27.7857142857143 173  L 30.5714285714286 175.785714285714  " stroke-width="2.78571428571429" stroke="#797979" fill="none" />
  <path d="M 30.5714285714286 175.785714285714  L 35.2142857142857 169.285714285714  " stroke-width="2.78571428571429" stroke="#797979" fill="none" />
</svg>