<?xml version="1.0" encoding="utf-8"?>
<svg version="1.1" xmlns:xlink="http://www.w3.org/1999/xlink" width="16px" height="15px" xmlns="http://www.w3.org/2000/svg">
  <g transform="matrix(1 0 0 1 -1415 -676 )">
    <path d="M 12.3958333333333 6.25  C 12.3958333333333 6.41927083333333  12.3298611111111 6.56575520833333  12.1979166666667 6.689453125  L 7.80208333333333 10.810546875  C 7.67013888888889 10.9342447916667  7.51388888888889 10.99609375  7.33333333333333 10.99609375  C 7.15277777777778 10.99609375  6.99652777777778 10.9342447916667  6.86458333333333 10.810546875  L 3.80208333333333 7.939453125  C 3.67013888888889 7.81575520833333  3.60416666666667 7.66927083333333  3.60416666666667 7.5  C 3.60416666666667 7.33072916666667  3.67013888888889 7.18424479166667  3.80208333333333 7.060546875  L 4.86458333333333 6.064453125  C 4.99652777777778 5.94075520833333  5.15277777777778 5.87890625  5.33333333333333 5.87890625  C 5.51388888888889 5.87890625  5.67013888888889 5.94075520833333  5.80208333333333 6.064453125  L 7.33333333333333 7.5  L 10.1979166666667 4.814453125  C 10.3298611111111 4.69075520833333  10.4861111111111 4.62890625  10.6666666666667 4.62890625  C 10.8472222222222 4.62890625  11.0034722222222 4.69075520833333  11.1354166666667 4.814453125  L 12.1979166666667 5.810546875  C 12.3298611111111 5.93424479166667  12.3958333333333 6.08072916666667  12.3958333333333 6.25  Z M 12.90625 10.166015625  C 13.4131944444444 9.35221354166666  13.6666666666667 8.46354166666667  13.6666666666667 7.5  C 13.6666666666667 6.53645833333333  13.4131944444444 5.64778645833333  12.90625 4.833984375  C 12.3993055555556 4.02018229166667  11.7118055555556 3.37565104166667  10.84375 2.900390625  C 9.97569444444444 2.42513020833333  9.02777777777778 2.1875  8 2.1875  C 6.97222222222222 2.1875  6.02430555555556 2.42513020833333  5.15625 2.900390625  C 4.28819444444444 3.37565104166667  3.60069444444444 4.02018229166667  3.09375 4.833984375  C 2.58680555555556 5.64778645833333  2.33333333333333 6.53645833333333  2.33333333333333 7.5  C 2.33333333333333 8.46354166666667  2.58680555555556 9.35221354166666  3.09375 10.166015625  C 3.60069444444444 10.9798177083333  4.28819444444444 11.6243489583333  5.15625 12.099609375  C 6.02430555555556 12.5748697916667  6.97222222222222 12.8125  8 12.8125  C 9.02777777777778 12.8125  9.97569444444444 12.5748697916667  10.84375 12.099609375  C 11.7118055555556 11.6243489583333  12.3993055555556 10.9798177083333  12.90625 10.166015625  Z M 14.9270833333333 3.7353515625  C 15.6423611111111 4.88444010416667  16 6.13932291666666  16 7.5  C 16 8.86067708333333  15.6423611111111 10.1155598958333  14.9270833333333 11.2646484375  C 14.2118055555556 12.4137369791667  13.2413194444444 13.3235677083333  12.015625 13.994140625  C 10.7899305555556 14.6647135416667  9.45138888888889 15  8 15  C 6.54861111111111 15  5.21006944444444 14.6647135416667  3.984375 13.994140625  C 2.75868055555556 13.3235677083333  1.78819444444444 12.4137369791667  1.07291666666667 11.2646484375  C 0.357638888888889 10.1155598958333  0 8.86067708333333  0 7.5  C 0 6.13932291666666  0.357638888888889 4.88444010416667  1.07291666666667 3.7353515625  C 1.78819444444444 2.58626302083333  2.75868055555556 1.67643229166667  3.984375 1.005859375  C 5.21006944444444 0.335286458333332  6.54861111111111 0  8 0  C 9.45138888888889 0  10.7899305555556 0.335286458333332  12.015625 1.005859375  C 13.2413194444444 1.67643229166667  14.2118055555556 2.58626302083333  14.9270833333333 3.7353515625  Z " fill-rule="nonzero" fill="#555555" stroke="none" transform="matrix(1 0 0 1 1415 676 )" />
  </g>
</svg>